<svg xmlns="http://www.w3.org/2000/svg" xmlns:xlink="http://www.w3.org/1999/xlink" width="500" zoomAndPan="magnify" viewBox="0 0 375 374.999991" height="500" preserveAspectRatio="xMidYMid meet" version="1.0"><defs><clipPath id="292af320ed"><path d="M 268.046875 108.867188 L 369.777344 108.867188 L 369.777344 212.222656 L 268.046875 212.222656 Z M 268.046875 108.867188 " clip-rule="nonzero"/></clipPath><clipPath id="c6f850577a"><path d="M 98 161.855469 L 273.65625 161.855469 L 273.65625 308.835938 L 98 308.835938 Z M 98 161.855469 " clip-rule="nonzero"/></clipPath></defs><path fill="#677c69" d="M 124.789062 37.179688 C 191.523438 27.820312 196.917969 147.335938 135.164062 144.441406 C 85.519531 142.117188 66.789062 45.308594 124.789062 37.179688 " fill-opacity="1" fill-rule="evenodd"/><path fill="#677c69" d="M 232.050781 37.179688 C 305.554688 21.132812 296.972656 151.707031 228.597656 144.441406 C 174.476562 138.691406 185.019531 47.441406 232.050781 37.179688 " fill-opacity="1" fill-rule="evenodd"/><path fill="#677c69" d="M 100.570312 180.773438 C 74.433594 237.832031 -5.222656 197.523438 3.683594 140.980469 C 13.0625 81.425781 119.578125 111.785156 100.570312 180.773438 " fill-opacity="1" fill-rule="evenodd"/><g clip-path="url(#292af320ed)"><path fill="#677c69" d="M 316.832031 109.84375 C 334.023438 106.511719 355.515625 112.621094 363.539062 127.140625 C 385.671875 167.195312 344.878906 216.148438 304.71875 211.910156 C 282.660156 209.597656 269.921875 190.820312 268.386719 173.855469 C 265.105469 137.515625 291.039062 114.832031 316.832031 109.84375 " fill-opacity="1" fill-rule="evenodd"/></g><g clip-path="url(#c6f850577a)"><path fill="#677c69" d="M 168.039062 163.46875 C 228.660156 153.015625 284.308594 196.699219 271.847656 270.734375 C 269.265625 286.0625 256.074219 307.730469 237.242188 308.796875 C 222.042969 309.664062 204.265625 294.867188 185.34375 294.957031 C 161.84375 295.070312 143.324219 315.910156 121.324219 305.34375 C 102.851562 296.457031 95.382812 260.542969 98.839844 234.410156 C 103.808594 196.734375 131.511719 169.769531 168.039062 163.46875 " fill-opacity="1" fill-rule="evenodd"/></g></svg>