<svg width="207" height="181" viewBox="0 0 207 181" fill="none" xmlns="http://www.w3.org/2000/svg">
<mask id="mask0_376_7" style="mask-type:luminance" maskUnits="userSpaceOnUse" x="-19" y="-38" width="255" height="254">
<path d="M-18.9585 28.8178L169.76 -37.4114L235.323 149.422L46.604 215.646L-18.9585 28.8178Z" fill="white"/>
</mask>
<g mask="url(#mask0_376_7)">
<mask id="mask1_376_7" style="mask-type:luminance" maskUnits="userSpaceOnUse" x="-19" y="-38" width="255" height="254">
<path d="M-18.9585 28.8178L169.76 -37.4114L235.323 149.422L46.604 215.646L-18.9585 28.8178Z" fill="white"/>
</mask>
<g mask="url(#mask1_376_7)">
<path d="M107.286 44.4012C106.656 26.2605 124.687 2.29178 142.692 3.04699C173.63 4.28657 168.562 67.5053 132.078 67.7814C116.557 67.9689 107.833 57.4064 107.286 44.4012ZM52.9164 68.6407C50.4945 65.1407 49.2498 62.422 41.5206 57.2918C13.3383 38.8282 -8.83879 57.6564 5.07267 83.1355C27.5362 124.261 69.1508 99.3803 52.9164 68.6407ZM75.432 67.8178C93.031 66.3282 102.099 49.5157 98.63 31.323C97.0258 21.8439 79.13 -5.58322 58.8643 3.29699C40.7862 11.3178 42.3279 45.1512 56.8331 59.0939C61.9893 63.9741 68.3539 68.4845 75.432 67.8178ZM158.484 66.3074C143.453 79.4741 149.38 102.636 166.104 108.052C194.026 117.047 212.099 83.2605 205.286 66.4272C199.041 51.2189 178.219 49.1043 158.484 66.3074ZM140.26 93.4064C151.974 107.037 165.786 126.766 165.64 144.745C165.349 168.849 143.161 181.516 123.015 175.198C96.6404 166.948 102 168.323 80.9268 176.672C47.7393 190.136 29.5102 160.672 42.1143 127.516C53.3748 97.8855 86.0466 61.2709 115.495 72.8387C127.854 77.6772 134.344 86.4949 140.26 93.4064ZM124.14 106.333C117.958 104.391 113.12 105.037 106.182 111.151C102.125 114.583 101.031 118.552 99.3383 115.083C90.4737 93.0939 56.0102 109.203 81.005 131.651C87.0831 137.12 93.4893 142.573 100.781 148.766C101.219 149.328 102.411 149.193 103.104 148.714C116.646 132.531 131.375 128.177 130.562 114.406C130.245 110.787 127.989 107.755 124.14 106.333Z" fill="#1A3637"/>
</g>
</g>
</svg>
